<svg   xmlns:svg="http://www.w3.org/2000/svg"   xmlns="http://www.w3.org/2000/svg"   version="1.1"   width="1024"   height="1024"   viewBox="0 0 1024 1024">  <path     d="M225 448C348.712 448 449 548.29 449 672C449 795.712 348.712 896 225 896S1 795.712 1 672L0 640C0 392.576 200.576 192 448 192V320C362.526 320 282.166 353.28600000000006 221.726 413.726C210.09199999999998 425.36199999999997 199.474 437.74199999999996 189.89600000000002 450.746C201.334 448.9459999999999 213.056 448 225 448zM801 448C924.71 448 1025 548.29 1025 672C1025 795.712 924.71 896 801 896S577 795.712 577 672L576 640C576 392.576 776.576 192 1024 192V320C938.526 320 858.1659999999999 353.28600000000006 797.726 413.726C786.09 425.36199999999997 775.472 437.74199999999996 765.894 450.746C777.3340000000001 448.9459999999999 789.054 448 801 448z"     id="blockquote" /></svg>