<svg   xmlns:svg="http://www.w3.org/2000/svg"   xmlns="http://www.w3.org/2000/svg"   version="1.1"   width="1024"   height="1024"   viewBox="0 0 1024 1024">  <path     d="M707.88 484.65200000000004C745.378 440.11 768 382.644 768 320C768 178.84000000000003 653.158 64 512 64H192V960H576C717.158 960 832 845.158 832 704C832 611.044 782.202 529.504 707.88 484.65200000000004zM384 192H485.5C541.468 192 587 249.41999999999996 587 320S541.468 448 485.5 448H384V192zM543 832H384V576H543C601.45 576 649 633.4200000000001 649 704S601.45 832 543 832z"     id="bold" /></svg>