<svg   xmlns:svg="http://www.w3.org/2000/svg"   xmlns="http://www.w3.org/2000/svg"   version="1.1"   width="1024"   height="1024"   viewBox="0 0 1024 1024">  <path     d="M384 64H1024V192H384V64zM384 448H1024V576H384V448zM384 832H1024V960H384V832zM0 128C0 57.30799999999999 57.308 0 128 0S256 57.30799999999999 256 128C256 198.692 198.692 256 128 256S0 198.692 0 128zM0 512C0 441.308 57.308 384 128 384S256 441.308 256 512C256 582.692 198.692 640 128 640S0 582.692 0 512zM0 896C0 825.308 57.308 768 128 768S256 825.308 256 896C256 966.692 198.692 1024 128 1024S0 966.692 0 896z"     id="bullist" /></svg>