<svg width="34" height="28" viewBox="0 0 34 28" xmlns="http://www.w3.org/2000/svg"><path d="M15.357 8.628c-1.45-.798-3.08-1.216-4.737-1.213-5.398 0-9.775 4.338-9.775 9.69 0 5.35 4.377 9.687 9.775 9.687 5.2 0 9.453-4.025 9.758-9.104.004-.065.02-.252.026-.357.004-.076.02-.486.02-.36V3.527l-5.067-2.23v7.332zm-4.804 13.22c-2.623.003-4.752-2.12-4.755-4.744 0-1.26.503-2.468 1.394-3.358.892-.89 2.1-1.39 3.36-1.388 1.26 0 2.47.498 3.36 1.388.892.89 1.394 2.098 1.395 3.358-.003 2.623-2.13 4.747-4.754 4.745v-.002zm21.34-.003l.03.002c-.21-.01-.418-.037-.623-.084-.328-.065-.647-.168-.95-.308-.092-.04-.183-.086-.272-.134-1.686-.926-2.863-2.97-2.863-5.35v-3.61h4.736V7.267h-4.734V1.295l-5.067 2.23V17.1c.03 5.325 4.393 9.692 9.773 9.692v-4.945h-.03v-.002z" /></svg>