<svg   xmlns:svg="http://www.w3.org/2000/svg"   xmlns="http://www.w3.org/2000/svg"   version="1.1"   width="1024"   height="1024"   viewBox="0 0 1024 1024">  <path     d="M320 704C337.6 721.6 367.274 720.726 385.942 702.058L702.06 385.942C720.728 367.274 721.5999999999999 337.6 704 320S656.726 303.274 638.058 321.942L321.942 638.058C303.274 656.726 302.4 686.4 320 704zM476.888 675.1120000000001C481.448 684.162 483.878 694.272 483.878 704.808C483.878 722.424 477.134 738.868 464.88599999999997 751.116L301.50399999999996 914.498C289.256 926.746 272.80999999999995 933.49 255.19599999999997 933.49S221.13599999999997 926.746 208.88799999999998 914.498L109.50599999999997 815.116C97.25799999999997 802.868 90.51399999999997 786.422 90.51399999999997 768.808S97.25799999999997 734.748 109.50599999999997 722.5L272.888 559.118C285.13599999999997 546.8700000000001 301.582 540.124 319.19599999999997 540.124C329.73199999999997 540.124 339.84 542.5540000000001 348.892 547.114L414.23 481.77600000000007C386.36 460.366 352.79 449.6160000000001 319.196 449.6160000000001C279.21000000000004 449.6160000000001 239.22400000000005 464.78200000000015 208.88800000000003 495.11800000000017L45.50600000000003 658.5000000000001C-15.163999999999973 719.1700000000001 -15.163999999999973 818.4480000000001 45.50600000000003 879.1180000000002L144.88800000000003 978.5C175.22200000000004 1008.8320000000001 215.20800000000003 1024 255.19400000000002 1024C295.182 1024 335.168 1008.8320000000001 365.502 978.498L528.884 815.1160000000001C584.7040000000001 759.296 589.1220000000001 670.8180000000001 542.2280000000001 609.7720000000002L476.88800000000003 675.1120000000001zM978.498 144.88400000000001L879.116 45.50199999999995C848.782 15.16599999999994 808.796 0 768.808 0C728.822 0 688.836 15.166000000000054 658.5 45.50199999999995L495.118 208.88400000000001C439.298 264.70400000000006 434.88 353.182 481.776 414.226L547.114 348.88599999999997C542.556 339.836 540.126 329.726 540.126 319.192C540.126 301.576 546.87 285.13200000000006 559.1179999999999 272.884L722.5 109.50199999999995C734.748 97.2539999999999 751.194 90.50799999999992 768.808 90.50799999999992S802.8679999999999 97.2539999999999 815.116 109.50199999999995L914.498 208.88400000000001C926.7460000000001 221.13200000000006 933.49 237.57799999999997 933.49 255.192S926.746 289.25199999999995 914.498 301.5L751.116 464.88200000000006C738.8679999999999 477.13 722.422 483.874 704.808 483.874C694.272 483.874 684.164 481.44399999999996 675.112 476.884L609.774 542.222C637.646 563.6320000000001 671.2139999999999 574.382 704.808 574.382C744.796 574.382 784.782 559.2139999999999 815.116 528.8799999999999L978.498 365.49799999999993C1039.1680000000001 304.8319999999999 1039.1680000000001 205.55399999999997 978.498 144.8839999999999z"     id="link" /></svg>