<svg   xmlns:svg="http://www.w3.org/2000/svg"   xmlns="http://www.w3.org/2000/svg"   version="1.1"   width="1024"   height="1024"   viewBox="0 0 1024 1024">  <path     d="M476.888 675.114C481.448 684.162 483.878 694.2719999999999 483.878 704.81C483.878 722.4259999999999 477.134 738.8679999999999 464.88599999999997 751.1179999999999L301.506 914.4979999999999C289.258 926.746 272.80999999999995 933.49 255.19799999999998 933.49S221.13799999999998 926.746 208.89 914.4979999999999L109.50999999999999 815.1179999999999C97.26199999999999 802.8679999999999 90.51799999999999 786.422 90.51799999999999 768.81S97.26199999999999 734.75 109.50999999999999 722.502L272.89 559.12C285.138 546.874 301.586 540.1279999999999 319.198 540.1279999999999C329.736 540.1279999999999 339.842 542.558 348.894 547.116L414.23199999999997 481.78C386.36199999999997 460.3699999999999 352.792 449.62 319.198 449.62C279.212 449.62 239.226 464.78600000000006 208.89 495.12200000000007L45.50999999999999 658.504C-15.16000000000001 719.174 -15.16000000000001 818.454 45.50999999999999 879.1220000000001L144.89 978.5039999999999C175.224 1008.836 215.20999999999998 1024.004 255.19599999999997 1024.004C295.18399999999997 1024.004 335.16999999999996 1008.836 365.50399999999996 978.502L528.884 815.1220000000001C584.7040000000001 759.302 589.1220000000001 670.8240000000001 542.2280000000001 609.7760000000001L476.88800000000003 675.114zM978.496 144.88400000000001L879.116 45.50199999999995C848.782 15.16599999999994 808.796 0 768.808 0C728.822 0 688.838 15.166000000000054 658.502 45.50199999999995L495.11999999999995 208.88400000000001C439.29999999999995 264.70400000000006 434.88199999999995 353.182 481.77799999999996 414.226L547.116 348.88599999999997C542.558 339.836 540.1279999999999 329.726 540.1279999999999 319.192C540.1279999999999 301.576 546.872 285.13200000000006 559.1199999999999 272.884L722.502 109.50199999999995C734.7479999999999 97.2539999999999 751.1959999999999 90.50799999999992 768.808 90.50799999999992C786.424 90.50799999999992 802.8679999999999 97.2539999999999 815.116 109.50199999999995L914.496 208.88400000000001C926.744 221.13200000000006 933.4879999999999 237.57799999999997 933.4879999999999 255.192S926.7439999999999 289.25199999999995 914.496 301.5L751.116 464.88200000000006C738.8679999999999 477.13 722.422 483.874 704.808 483.874C694.272 483.874 684.164 481.44399999999996 675.112 476.884L609.774 542.222C637.646 563.6320000000001 671.2139999999999 574.382 704.808 574.382C744.796 574.382 784.782 559.2139999999999 815.116 528.8779999999999L978.496 365.49799999999993C1039.168 304.8319999999999 1039.168 205.55399999999997 978.496 144.8839999999999zM233.368 278.624L41.373999999999995 86.63L86.63 41.374000000000024L278.624 233.36800000000005zM384 0H448V192H384zM0 384H192V448H0zM790.632 745.376L982.6279999999999 937.3720000000001L937.372 982.6279999999999L745.376 790.6320000000001zM576 832H640V1024H576zM832 576H1024V640H832z"     id="unlink" /></svg>